<svg xmlns="http://www.w3.org/2000/svg" viewBox="0 0 17 17"><title>Icon_pinterest</title><g  fill="#fff6ee" id="Design"><g id="Pinterest_icon" data-name="Pinterest icon"><path d="M9.83,12.13a2.75,2.75,0,0,1-2.42-1.06s-.58,2.25-.7,2.68A10.37,10.37,0,0,1,4.92,17a.13.13,0,0,1-.23-.06,10.68,10.68,0,0,1,0-3.71C4.91,12.39,6,7.7,6,7.7a2.68,2.68,0,0,1-.3-1.38c0-1.45.85-2.44,1.91-2.44A1.24,1.24,0,0,1,8.92,5.25a20.37,20.37,0,0,1-.87,3.47,1.45,1.45,0,0,0,1.56,1.79c1.88,0,3.14-2.29,3.14-5.1,0-2.14-1.46-3.79-4.12-3.79A4.51,4.51,0,0,0,3.86,6.46a2.48,2.48,0,0,0,.65,1.8.46.46,0,0,1,.14.54c-.05.18-.26.62-.3.79a.35.35,0,0,1-.5.24,3.76,3.76,0,0,1-2-3.73C1.82,3.33,4.2,0,8.9,0c3.79,0,6.28,2.7,6.28,5.59C15.18,9.42,13,12.13,9.83,12.13Z"/></g></g></svg>